<?xml version="1.0" encoding="UTF-8" standalone="no"?>
<!DOCTYPE svg PUBLIC "-//W3C//DTD SVG 1.1//EN"
 "http://www.w3.org/Graphics/SVG/1.1/DTD/svg11.dtd">
<!-- Generated by graphviz version 2.40.1 (20161225.0304)
 -->
<!-- Title: %3 Pages: 1 -->
<svg width="498pt" height="404pt"
 viewBox="0.00 0.00 498.07 404.00" xmlns="http://www.w3.org/2000/svg" xmlns:xlink="http://www.w3.org/1999/xlink">
<g id="graph0" class="graph" transform="scale(1 1) rotate(0) translate(4 400)">
<title>%3</title>
<polygon fill="#ffffff" stroke="transparent" points="-4,4 -4,-400 494.075,-400 494.075,4 -4,4"/>
<!-- [root] aws_instance.web&#45;server -->
<g id="node1" class="node">
<title>[root] aws_instance.web&#45;server</title>
<polygon fill="none" stroke="#000000" points="354.7843,-180 202.7843,-180 202.7843,-144 354.7843,-144 354.7843,-180"/>
<text text-anchor="middle" x="278.7843" y="-158.3" font-family="Times,serif" font-size="14.00" fill="#000000">aws_instance.web&#45;server</text>
</g>
<!-- [root] aws_security_group.web&#45;server&#45;security&#45;group -->
<g id="node2" class="node">
<title>[root] aws_security_group.web&#45;server&#45;security&#45;group</title>
<polygon fill="none" stroke="#000000" points="414.7843,-108 142.7843,-108 142.7843,-72 414.7843,-72 414.7843,-108"/>
<text text-anchor="middle" x="278.7843" y="-86.3" font-family="Times,serif" font-size="14.00" fill="#000000">aws_security_group.web&#45;server&#45;security&#45;group</text>
</g>
<!-- [root] aws_instance.web&#45;server&#45;&gt;[root] aws_security_group.web&#45;server&#45;security&#45;group -->
<g id="edge1" class="edge">
<title>[root] aws_instance.web&#45;server&#45;&gt;[root] aws_security_group.web&#45;server&#45;security&#45;group</title>
<path fill="none" stroke="#000000" d="M278.7843,-143.8314C278.7843,-136.131 278.7843,-126.9743 278.7843,-118.4166"/>
<polygon fill="#000000" stroke="#000000" points="282.2844,-118.4132 278.7843,-108.4133 275.2844,-118.4133 282.2844,-118.4132"/>
</g>
<!-- [root] provider.aws -->
<g id="node4" class="node">
<title>[root] provider.aws</title>
<polygon fill="none" stroke="#000000" points="278.7843,-36 198.8509,-18 278.7843,0 358.7177,-18 278.7843,-36"/>
<text text-anchor="middle" x="278.7843" y="-14.3" font-family="Times,serif" font-size="14.00" fill="#000000">provider.aws</text>
</g>
<!-- [root] aws_security_group.web&#45;server&#45;security&#45;group&#45;&gt;[root] provider.aws -->
<g id="edge2" class="edge">
<title>[root] aws_security_group.web&#45;server&#45;security&#45;group&#45;&gt;[root] provider.aws</title>
<path fill="none" stroke="#000000" d="M278.7843,-71.8314C278.7843,-64.131 278.7843,-54.9743 278.7843,-46.4166"/>
<polygon fill="#000000" stroke="#000000" points="282.2844,-46.4132 278.7843,-36.4133 275.2844,-46.4133 282.2844,-46.4132"/>
</g>
<!-- [root] output.web&#45;server&#45;public&#45;dns -->
<g id="node3" class="node">
<title>[root] output.web&#45;server&#45;public&#45;dns</title>
<polygon fill="none" stroke="#000000" points="255.7843,-252 85.7843,-252 85.7843,-216 261.7843,-216 261.7843,-246 255.7843,-252"/>
<polyline fill="none" stroke="#000000" points="255.7843,-252 255.7843,-246 "/>
<polyline fill="none" stroke="#000000" points="261.7843,-246 255.7843,-246 "/>
<text text-anchor="middle" x="173.7843" y="-230.3" font-family="Times,serif" font-size="14.00" fill="#000000">output.web&#45;server&#45;public&#45;dns</text>
</g>
<!-- [root] output.web&#45;server&#45;public&#45;dns&#45;&gt;[root] aws_instance.web&#45;server -->
<g id="edge4" class="edge">
<title>[root] output.web&#45;server&#45;public&#45;dns&#45;&gt;[root] aws_instance.web&#45;server</title>
<path fill="none" stroke="#000000" d="M200.2802,-215.8314C213.4617,-206.7927 229.5691,-195.7476 243.7554,-186.0198"/>
<polygon fill="#000000" stroke="#000000" points="246.0289,-188.7047 252.2969,-180.1628 242.0702,-182.9316 246.0289,-188.7047"/>
</g>
<!-- [root] meta.count&#45;boundary (EachMode fixup) -->
<g id="node5" class="node">
<title>[root] meta.count&#45;boundary (EachMode fixup)</title>
<ellipse fill="none" stroke="#000000" cx="176.7843" cy="-306" rx="176.5689" ry="18"/>
<text text-anchor="middle" x="176.7843" y="-302.3" font-family="Times,serif" font-size="14.00" fill="#000000">[root] meta.count&#45;boundary (EachMode fixup)</text>
</g>
<!-- [root] meta.count&#45;boundary (EachMode fixup)&#45;&gt;[root] output.web&#45;server&#45;public&#45;dns -->
<g id="edge3" class="edge">
<title>[root] meta.count&#45;boundary (EachMode fixup)&#45;&gt;[root] output.web&#45;server&#45;public&#45;dns</title>
<path fill="none" stroke="#000000" d="M176.0273,-287.8314C175.7064,-280.131 175.3249,-270.9743 174.9683,-262.4166"/>
<polygon fill="#000000" stroke="#000000" points="178.4649,-262.2589 174.5515,-252.4133 171.471,-262.5503 178.4649,-262.2589"/>
</g>
<!-- [root] provider.aws (close) -->
<g id="node6" class="node">
<title>[root] provider.aws (close)</title>
<ellipse fill="none" stroke="#000000" cx="384.7843" cy="-234" rx="105.0817" ry="18"/>
<text text-anchor="middle" x="384.7843" y="-230.3" font-family="Times,serif" font-size="14.00" fill="#000000">[root] provider.aws (close)</text>
</g>
<!-- [root] provider.aws (close)&#45;&gt;[root] aws_instance.web&#45;server -->
<g id="edge5" class="edge">
<title>[root] provider.aws (close)&#45;&gt;[root] aws_instance.web&#45;server</title>
<path fill="none" stroke="#000000" d="M358.8538,-216.3868C345.3276,-207.1992 328.5859,-195.8275 313.9137,-185.8615"/>
<polygon fill="#000000" stroke="#000000" points="315.7928,-182.9068 305.554,-180.1832 311.8596,-188.6973 315.7928,-182.9068"/>
</g>
<!-- [root] root -->
<g id="node7" class="node">
<title>[root] root</title>
<ellipse fill="none" stroke="#000000" cx="278.7843" cy="-378" rx="47.3916" ry="18"/>
<text text-anchor="middle" x="278.7843" y="-374.3" font-family="Times,serif" font-size="14.00" fill="#000000">[root] root</text>
</g>
<!-- [root] root&#45;&gt;[root] meta.count&#45;boundary (EachMode fixup) -->
<g id="edge6" class="edge">
<title>[root] root&#45;&gt;[root] meta.count&#45;boundary (EachMode fixup)</title>
<path fill="none" stroke="#000000" d="M256.1472,-362.0209C242.8022,-352.6009 225.6583,-340.4993 210.7214,-329.9556"/>
<polygon fill="#000000" stroke="#000000" points="212.4154,-326.8672 202.2273,-323.9597 208.3786,-332.586 212.4154,-326.8672"/>
</g>
<!-- [root] root&#45;&gt;[root] provider.aws (close) -->
<g id="edge7" class="edge">
<title>[root] root&#45;&gt;[root] provider.aws (close)</title>
<path fill="none" stroke="#000000" d="M311.1194,-364.5495C328.8977,-355.566 349.8977,-342.066 362.7843,-324 375.6497,-305.9637 381.0397,-281.283 383.274,-262.3285"/>
<polygon fill="#000000" stroke="#000000" points="386.7751,-262.4819 384.2379,-252.1954 379.8066,-261.819 386.7751,-262.4819"/>
</g>
</g>
</svg>
